<?xml version="1.0" encoding="UTF-8" standalone="no"?>
<!-- Created with Inkscape (http://www.inkscape.org/) -->

<svg
   width="1280"
   height="640"
   viewBox="0 0 338.66666 169.33333"
   version="1.1"
   id="svg1"
   xml:space="preserve"
   inkscape:version="1.3.2 (091e20e, 2023-11-25, custom)"
   sodipodi:docname="openpalette-social-preview.svg"
   xmlns:inkscape="http://www.inkscape.org/namespaces/inkscape"
   xmlns:sodipodi="http://sodipodi.sourceforge.net/DTD/sodipodi-0.dtd"
   xmlns:xlink="http://www.w3.org/1999/xlink"
   xmlns="http://www.w3.org/2000/svg"
   xmlns:svg="http://www.w3.org/2000/svg"><sodipodi:namedview
     id="namedview1"
     pagecolor="#ffffff"
     bordercolor="#666666"
     borderopacity="1.0"
     inkscape:showpageshadow="2"
     inkscape:pageopacity="0.0"
     inkscape:pagecheckerboard="0"
     inkscape:deskcolor="#d1d1d1"
     inkscape:document-units="mm"
     inkscape:zoom="0.36569515"
     inkscape:cx="71.097471"
     inkscape:cy="187.31449"
     inkscape:window-width="1920"
     inkscape:window-height="1017"
     inkscape:window-x="-8"
     inkscape:window-y="472"
     inkscape:window-maximized="1"
     inkscape:current-layer="svg1" /><defs
     id="defs1"><linearGradient
       id="linearGradient4"
       inkscape:collect="always"><stop
         style="stop-color:#6dc3b4;stop-opacity:1;"
         offset="0"
         id="stop4" /><stop
         style="stop-color:#fcb673;stop-opacity:1;"
         offset="1"
         id="stop5" /></linearGradient><inkscape:path-effect
       effect="fillet_chamfer"
       id="path-effect52"
       is_visible="true"
       lpeversion="1"
       nodesatellites_param="F,0,0,1,0,60,0,1 @ F,0,0,1,0,60,0,1 @ F,0,0,1,0,60,0,1 @ F,0,0,1,0,60,0,1"
       radius="60"
       unit="px"
       method="auto"
       mode="F"
       chamfer_steps="1"
       flexible="false"
       use_knot_distance="true"
       apply_no_radius="true"
       apply_with_radius="true"
       only_selected="false"
       hide_knots="false" /><linearGradient
       inkscape:collect="always"
       xlink:href="#linearGradient4"
       id="linearGradient5"
       x1="0"
       y1="84.666664"
       x2="338.66666"
       y2="84.666664"
       gradientUnits="userSpaceOnUse" /></defs><rect
     style="fill:url(#linearGradient5);stroke-width:3.96875;stroke-linecap:round;stroke-linejoin:bevel;stroke:none"
     id="rect4"
     width="338.66666"
     height="169.33333"
     x="0"
     y="0"
     inkscape:export-filename="openpalette-social-preview-1280x640.png"
     inkscape:export-xdpi="96"
     inkscape:export-ydpi="96" /><g
     id="g4"
     transform="translate(108.28281,11.592367)"><g
       id="g49"
       transform="matrix(0.26458333,0,0,0.26458333,-83.952025,-59.379058)"
       style="display:inline"
       inkscape:export-filename="..\Documents\development\openpalette\assets\openpalette-logo-squircle.png"
       inkscape:export-xdpi="287.78217"
       inkscape:export-ydpi="287.78217"><path
         d="M 0,0 C 1.6076682,1.4753601 3.2121612,2.9541928 4.8125,4.4375 5.4054687,4.9647266 5.9984375,5.4919531 6.609375,6.0351562 23.671278,21.918975 37.984231,47.640176 39.148437,71.199219 39.458799,88.077464 36.492178,103.37625 24.5625,116.25 c -12.593927,11.45156 -26.9476113,16.14443 -43.65625,15.49609 -3.996765,-0.24753 -7.785229,-0.92422 -11.679687,-1.84765 -10.925269,-2.08606 -20.127602,0.0993 -29.726563,5.35156 -6.094418,4.96057 -11.09362,10.68586 -11.96875,18.79297 -0.290123,8.76413 1.387697,14.42914 7.03125,21.14453 5.905636,6.29645 11.856115,9.28911 20.5,9.6875 8.266496,-0.0505 15.258557,-3.27449 22.75,-6.4375 1.915266,-0.77431 3.831698,-1.54575 5.75,-2.3125 0.737344,-0.30551 1.474687,-0.61102 2.234375,-0.92578 9.0264952,-3.41118 19.2521445,-2.58133 28.015625,1.23828 10.487167,5.53681 16.986268,13.59473 20.582031,24.81641 3.909317,20.42344 -4.289139,42.0596 -15.550537,58.70166 -4.468184,6.34703 -9.5901668,11.95522 -15.031494,17.48193 -0.535686,0.5576 -1.0713721,1.1152 -1.623291,1.6897 -26.294183,27.00413 -66.607333,41.8486 -103.966549,42.47827 -44.93431,0.28671 -86.26283,-10.54172 -122.41016,-38.16797 -0.89461,-0.67031 -1.78922,-1.34063 -2.71094,-2.03125 -13.29638,-10.38156 -25.88791,-22.93766 -35.28906,-36.96875 -0.40235,-0.59619 -0.8047,-1.19238 -1.21924,-1.80664 -24.85449,-37.60609 -32.91965,-88.11383 -24.76513,-132.15039 0.40016,-1.95417 0.81182,-3.90602 1.23437,-5.85547 0.22325,-1.04116 0.4465,-2.08232 0.67651,-3.15503 7.68277,-34.924877 24.15325,-64.690032 48.07349,-91.03247 0.69738,-0.7708594 1.39477,-1.5417187 2.11328,-2.3359375 5.98764,-6.2825354 12.93397,-11.5053356 19.88672,-16.6640625 0.57073,-0.4257129 1.14146,-0.8514258 1.72949,-1.2900391 C -151.96476,-55.762279 -57.591619,-51.1158 0,0 Z"
         fill="#fdf6ed"
         transform="translate(381.1875,360.5625)"
         id="path2"
         style="display:inline" /><path
         d="M 0,0 C 1.6076682,1.4753601 3.2121612,2.9541928 4.8125,4.4375 5.4054687,4.9647266 5.9984375,5.4919531 6.609375,6.0351562 23.671278,21.918975 37.984231,47.640176 39.148437,71.199219 39.458799,88.077464 36.492178,103.37625 24.5625,116.25 c -12.593927,11.45156 -26.9476113,16.14443 -43.65625,15.49609 -3.996765,-0.24753 -7.785229,-0.92422 -11.679687,-1.84765 -10.925269,-2.08606 -20.127602,0.0993 -29.726563,5.35156 -6.094418,4.96057 -11.09362,10.68586 -11.96875,18.79297 -0.290123,8.76413 1.387697,14.42914 7.03125,21.14453 5.905636,6.29645 11.856115,9.28911 20.5,9.6875 8.266496,-0.0505 15.258557,-3.27449 22.75,-6.4375 1.915266,-0.77431 3.831698,-1.54575 5.75,-2.3125 0.737344,-0.30551 1.474687,-0.61102 2.234375,-0.92578 9.0264952,-3.41118 19.2521445,-2.58133 28.015625,1.23828 10.487167,5.53681 16.986268,13.59473 20.582031,24.81641 3.909317,20.42344 -4.289139,42.0596 -15.550537,58.70166 -4.468184,6.34703 -9.5901668,11.95522 -15.031494,17.48193 -0.535686,0.5576 -1.0713721,1.1152 -1.623291,1.6897 -26.294183,27.00413 -66.607333,41.8486 -103.966549,42.47827 -44.93431,0.28671 -86.26283,-10.54172 -122.41016,-38.16797 -0.89461,-0.67031 -1.78922,-1.34063 -2.71094,-2.03125 -13.29638,-10.38156 -25.88791,-22.93766 -35.28906,-36.96875 -0.40235,-0.59619 -0.8047,-1.19238 -1.21924,-1.80664 -24.85449,-37.60609 -32.91965,-88.11383 -24.76513,-132.15039 0.40016,-1.95417 0.81182,-3.90602 1.23437,-5.85547 0.22325,-1.04116 0.4465,-2.08232 0.67651,-3.15503 7.68277,-34.924877 24.15325,-64.690032 48.07349,-91.03247 0.69738,-0.7708594 1.39477,-1.5417187 2.11328,-2.3359375 5.98764,-6.2825354 12.93397,-11.5053356 19.88672,-16.6640625 0.57073,-0.4257129 1.14146,-0.8514258 1.72949,-1.2900391 C -151.96476,-55.762279 -57.591619,-51.1158 0,0 Z m -221.1875,18.4375 c -1.34385,1.26457 -1.34385,1.26457 -2.71484,2.554687 -32.20015,31.161437 -48.4727,76.177366 -49.63892,120.431393 -0.35849,43.48492 14.44751,83.57064 44.35376,115.01392 0.68191,0.75797 1.36383,1.51594 2.06641,2.29687 23.75426,25.47425 60.04239,39.9554 93.93359,44.70313 0.68288,0.0957 1.36576,0.19143 2.06934,0.29004 39.661515,4.99123 80.103422,-4.74544 111.93066,-28.97754 17.9780166,-14.96197 34.473583,-34.07469 37,-58.3125 0.6506,-7.2176 0.391726,-13.01746 -4,-19 -4.4382069,-5.01377 -9.5339734,-6.64281 -16.0703125,-7.31641 -5.3628237,0.4318 -9.5245275,2.44733 -14.3671875,4.69141 -14.061324,6.42345 -27.805779,9.57447 -42.9375,4.625 -12.37087,-5.07887 -20.92212,-12.78076 -27.003906,-24.70313 -4.245094,-10.59054 -4.68525,-24.23629 -0.558594,-34.92187 7.007071,-14.01414 18.155251,-22.44052 32.9375,-27.375 4.190283,-1.08892 8.318072,-1.19159 12.625,-1.1875 0.712932,-6.4e-4 1.425864,-0.001 2.1604,-0.002 4.005955,0.0398 7.722171,0.33827 11.6521,1.18945 10.5937,2.20835 23.0910321,2.90026 32.5625,-3 9.121344,-6.71764 13.773817,-13.857786 16,-25 C 23.307758,63.654943 15.425516,45.612485 3.0351563,29.1875 -21.191841,-0.78755502 -53.067236,-18.854728 -91.578125,-23.128906 -139.14442,-27.333519 -186.15037,-14.790197 -221.1875,18.4375 Z"
         fill="#3f2822"
         transform="translate(381.1875,360.5625)"
         id="path3"
         style="display:inline" /><path
         d="m 0,0 c 7.8480069,4.7764351 13.879754,11.258267 16.488281,20.199219 2.099718,10.43743 -0.005,18.194231 -5.125,27.375 -5.755521,7.235512 -13.0564916,11.906406 -22.1875,13.75 C -19.910543,62.209627 -27.040298,60.75829 -34.496094,55.40625 -41.699571,49.385592 -46.345607,42.693638 -47.824219,33.324219 -48.707502,23.064548 -46.422636,15.36086 -39.855469,7.4023437 -29.459569,-3.233461 -13.600676,-6.5146095 0,0 Z"
         fill="#bd8ed3"
         transform="translate(185.82422,493.67578)"
         id="path13" /><path
         d="M 0,0 C 8.4590367,4.966348 13.888121,11.421858 16.8125,20.808594 19.080084,30.800134 16.461488,39.035901 11.625,47.875 5.3938266,55.530442 -2.791472,60.717522 -12.753906,61.800781 -21.85804,62.085754 -29.389767,59.73058 -36.4375,53.875 -43.20076,47.390513 -46.580414,40.348448 -46.905518,31.028809 -47.027633,23.043766 -46.22121,17.31763 -41.5625,10.5625 -40.840625,9.49 -40.11875,8.4175 -39.375,7.3125 -28.923212,-2.9070259 -13.477447,-6.2389205 0,0 Z"
         fill="#ee8ba6"
         transform="translate(197.5625,413.4375)"
         id="path14" /><path
         d="m 0,0 c 9.3772298,5.1148526 14.217904,12.431054 17.535156,22.382812 1.035615,11.001289 -0.973319,19.786674 -8.0624997,28.375 -7.135552,7.262766 -14.3169951,10.079213 -24.3750003,10.3125 -8.894622,-0.108063 -15.917284,-2.65883 -22.710937,-8.550781 -1.85023,-1.947815 -3.361492,-3.903687 -4.851563,-6.136719 -0.431836,-0.63164 -0.863672,-1.263281 -1.308593,-1.914062 -4.359613,-7.814116 -4.204005,-18.66289 -1.84375,-27.125 C -41.556611,8.4517759 -34.514351,1.934393 -25.464844,-1.6171875 -17.341397,-4.325003 -7.8028558,-3.2866226 0,0 Z"
         fill="#84b3e3"
         transform="translate(231.46484,559.61719)"
         id="path15" /><path
         d="m 0,0 c 9.126331,5.4572993 13.986495,12.404798 17.3125,22.382812 0.958686,10.184072 -0.609044,19.250067 -7.1875,27.3125 -7.0739432,7.376896 -14.7226935,11.551589 -25,12.125 -7.65747,-0.147664 -15.012782,-3.110846 -21.1875,-7.625 C -43.589225,46.130965 -47.217566,37.463646 -47,26.476562 -46.187351,18.431337 -42.295085,11.151321 -36.6875,5.3828125 -26.130948,-3.1458199 -12.667962,-5.9589428 0,0 Z"
         fill="#fa9196"
         transform="translate(264.6875,365.61719)"
         id="path16" /><path
         d="m 0,0 c 7.1654155,4.2318567 12.544074,10.042909 15.652344,17.820312 2.056967,8.349584 1.762419,17.586297 -1.957031,25.402344 C 8.4972799,51.783258 1.9572773,57.120601 -7.6328125,60.105469 -17.939603,62.084529 -26.696797,59.820865 -35.4375,54.3125 -42.387124,48.936376 -46.080932,40.974647 -47.6875,32.5 c -0.998926,-8.227266 0.955113,-15.443889 5.75,-22.1875 C -31.470104,-2.6619014 -15.572041,-7.2158322 0,0 Z"
         fill="#fcb673"
         transform="translate(346.6875,389.5)"
         id="path17" /><path
         d="M 0,0 C 8.0813865,4.64435 13.850147,11.042755 16.941406,19.890625 19.181899,29.528971 17.50061,38.121555 12.875,46.6875 6.6004096,54.488342 -0.48585027,59.73309 -10.613281,60.941406 -20.816407,61.313083 -27.921049,58.961626 -35.75,52.4375 c -6.98695,-6.657377 -10.179096,-13.977511 -11,-23.5 0.17667,-9.381156 4.82084,-17.830669 11.3125,-24.375 C -25.320892,-3.4407737 -11.860634,-5.4405194 0,0 Z"
         fill="#6dc3b4"
         transform="translate(315.4375,581.4375)"
         id="path18" /></g><g
       id="g3"><g
         id="g1"><path
           id="path4"
           d="m 69.970259,42.190914 c -3.337963,0.03899 -6.610859,1.133914 -9.235612,3.59823 l -0.453719,0.463021 c -1.398966,1.401398 -2.611442,2.766325 -3.423047,4.5868 l -0.28112,0.704866 c -0.731473,1.756499 -1.114655,3.416015 -1.170471,5.313371 -0.02558,4.562254 1.254215,8.37568 4.421952,11.732617 2.979309,2.813793 6.587158,4.406561 10.721826,4.484481 4.373326,-0.165132 8.474274,-1.709002 11.492839,-4.944401 3.490036,-4.172564 4.003111,-8.386124 3.638021,-13.675651 -0.681764,-3.901974 -2.933817,-7.183242 -6.085417,-9.525 -2.884241,-1.760382 -6.287289,-2.777324 -9.625252,-2.738334 z m 0.226859,4.939233 c 2.058924,-0.01472 4.123889,0.620222 5.859591,1.668632 2.249865,1.601998 3.567205,3.737986 4.067969,6.449219 0.341373,3.390573 0.119271,6.367357 -1.901693,9.210807 -0.975884,1.165639 -2.061507,1.968282 -3.389974,2.695443 l -0.473356,0.272851 c -2.004447,0.953658 -4.683994,0.836243 -6.791317,0.279053 -3.040281,-1.185519 -4.645101,-2.974791 -5.974829,-5.924186 -0.986544,-2.738351 -0.922173,-6.260014 0.274919,-8.915218 1.265841,-2.570041 2.88772,-4.218752 5.55625,-5.291667 0.901757,-0.297304 1.836566,-0.438244 2.77244,-0.444934 z"
           style="fill:#3e2721;fill-opacity:1;stroke:none;stroke-width:0.264583" /><path
           id="path5"
           d="m 101.48978,50.33667 c -1.900282,-0.0058 -3.536148,0.297122 -5.101497,1.425236 l -0.520899,0.492993 -0.537435,0.499194 -0.388606,0.377238 c -0.07874,-0.618638 -0.167321,-1.236086 -0.264584,-1.852083 -0.298081,-0.298081 -0.298083,-0.298082 -1.873787,-0.300757 l -0.639754,0.0031 c -0.752218,-0.0036 -1.496656,0.0066 -2.248959,0.03307 -0.264583,0.264583 -0.264361,0.264513 -0.297656,0.754992 l -5.29e-4,0.654741 -0.0021,0.748791 0.0016,0.827857 c -0.0015,0.912358 -0.0027,1.824941 -0.0021,2.7373 6.09e-4,0.65407 6.88e-4,1.308085 5.3e-4,1.962154 -8.74e-4,1.71068 -5.03e-4,3.421307 0.001,5.131987 0.0011,1.243739 0.0015,2.487299 5.3e-4,3.731038 -0.0014,1.557049 -0.002,3.113984 -0.0016,4.671033 3.44e-4,0.657442 3.44e-4,1.315047 5.29e-4,1.972489 -9e-4,0.950768 -0.0017,1.901772 -5.29e-4,2.852539 l 0.0016,0.866614 -0.0016,0.827857 0.0021,0.748792 c 1.77e-4,0.381826 0.0077,0.764199 0.03359,1.145149 0.298081,0.298082 0.298083,0.298082 1.873787,0.300757 l 0.639741,-0.0031 c 0.752217,0.0037 1.496655,-0.0066 2.248958,-0.03307 0.294712,-0.294711 0.294676,-0.294484 0.334863,-1.867585 l 0.01344,-0.680064 c 0.0172,-0.715166 0.03387,-1.43039 0.04909,-2.145604 0.01056,-0.498688 0.02159,-0.997367 0.03307,-1.496033 0.02705,-1.150341 0.0537,-2.300562 0.07855,-3.450952 l 0.02016,-0.943095 0.380338,0.33383 0.501778,0.435632 c 0.318697,0.278104 0.641629,0.551385 0.969967,0.818038 2.233036,1.222775 4.578874,1.344057 7.044534,0.876432 2.94349,-1.14469 5.18075,-2.608974 6.49986,-5.604826 l 0.21394,-0.563273 c 0.37016,-0.963069 0.62867,-1.890821 0.79375,-2.910416 0.26535,-3.943355 -0.31553,-7.445045 -2.91042,-10.583334 -1.87843,-1.630451 -3.80056,-2.718087 -6.31847,-2.793627 z m -1.08469,4.467944 c 0.7402,-0.01474 1.51495,0.117564 2.32906,0.419613 1.85741,1.102394 2.90733,2.558231 3.45095,4.633309 0.45754,2.340924 0.0423,4.44419 -1.25574,6.453353 -0.82753,1.077545 -1.82958,1.611328 -3.09231,2.10013 -1.946826,0.235978 -3.358946,0.05148 -5.043624,-0.992188 -1.418035,-1.252656 -2.259661,-3.003489 -2.444295,-4.87102 -0.0588,-2.101459 0.194238,-4.124914 1.62574,-5.758822 1.341093,-1.208484 2.80179,-1.951936 4.430219,-1.984375 z"
           style="fill:#3e2721;fill-opacity:1;stroke:none;stroke-width:0.264583;stroke-opacity:1" /><path
           id="path7"
           d="m 125.09196,50.305148 c -1.95576,4.16e-4 -3.91638,0.479179 -5.62498,1.353406 -2.78398,1.617935 -4.3122,3.946203 -5.17798,7.012492 -0.69678,3.182906 -0.48509,6.48461 1.28984,9.276953 1.94824,2.622439 4.16573,4.162396 7.40834,4.762499 3.3045,0.302127 6.40642,-0.03499 9.12089,-2.080493 1.10296,-0.928167 1.8284,-1.457004 1.99161,-2.94659 l -0.42582,-0.395841 -0.56637,-0.513664 c -0.5442,-0.498851 -0.99239,-0.885647 -1.67122,-1.178222 -0.51159,-0.02894 -0.51159,-0.02894 -0.93637,0.255281 -0.45567,0.464672 -0.92639,0.887672 -1.42731,1.30328 -1.96503,1.229542 -3.8911,1.305492 -6.13502,0.909505 -1.26619,-0.647163 -2.5586,-1.436796 -3.08198,-2.813782 L 119.6494,64.60195 c -0.12339,-0.383594 -0.24577,-0.767394 -0.36639,-1.151868 1.84538,-0.02581 3.69075,-0.05265 5.5361,-0.08113 0.93991,-0.01462 1.88005,-0.02962 2.81998,-0.04289 0.92172,-0.01275 1.843,-0.02568 2.76469,-0.04031 l 1.04903,-0.01654 1.03043,-0.01344 0.94723,-0.01602 c 0.48795,-0.0073 0.97604,-0.02162 1.46296,-0.05426 0.2981,-0.298101 0.2981,-0.298103 0.30075,-1.740979 l -0.003,-0.590662 c 0.005,-0.927761 0.0247,-1.844044 -0.13952,-2.760554 -1.04542,-3.067936 -2.66419,-5.309584 -5.52628,-6.882267 -1.39388,-0.617104 -2.91218,-0.906211 -4.43332,-0.905888 z m -0.2527,4.197677 c 1.05177,0 2.10354,0.215246 2.92695,0.645955 1.58083,1.278117 2.05744,1.917012 2.36472,4.067969 h -10.84792 c 0.56861,-1.990136 1.05825,-2.797762 2.6293,-4.067969 0.82341,-0.430709 1.87518,-0.645955 2.92695,-0.645955 z"
           style="fill:#3e2721;fill-opacity:1;stroke:none;stroke-width:0.264583" /><path
           d="m 154.46122,51.178995 c 1.96299,1.324925 2.87109,3.140732 3.45095,5.391919 0.13317,1.213872 0.13033,2.411763 0.11266,3.63182 -0.001,0.503806 -0.001,0.503806 -0.003,1.017791 -0.003,0.704104 -0.007,1.407838 -0.0156,2.111862 -0.0106,0.90364 -0.0153,1.807186 -0.0178,2.71088 -0.003,0.864366 -0.008,1.728709 -0.0135,2.59306 -0.002,0.325176 -0.004,0.650351 -0.006,0.985381 -0.003,0.297821 -0.007,0.595642 -0.0103,0.902488 -0.003,0.263252 -0.005,0.526503 -0.008,0.797731 -0.0389,0.59482 -0.0389,0.59482 -0.30352,0.859403 -0.75742,0.01938 -1.50831,0.02444 -2.26549,0.01654 -0.21334,-0.0012 -0.42668,-0.0024 -0.64648,-0.0036 -0.52865,-0.0031 -1.0573,-0.0079 -1.58595,-0.01292 -0.32079,-0.641585 -0.29921,-1.0532 -0.30211,-1.770047 -0.002,-0.257986 -0.004,-0.515971 -0.006,-0.781775 -0.001,-0.280001 -0.002,-0.560002 -0.003,-0.848487 -0.006,-0.591525 -0.0125,-1.183048 -0.0191,-1.774569 -0.009,-0.933594 -0.017,-1.867098 -0.0206,-2.800733 -0.004,-0.900358 -0.0148,-1.800452 -0.0264,-2.700739 5e-4,-0.276788 10e-4,-0.553575 0.002,-0.838749 -0.0289,-1.742659 -0.28756,-2.871892 -1.2118,-4.359901 -1.24963,-1.064192 -2.57559,-0.923528 -4.14651,-0.885733 -1.18801,0.124099 -1.63828,0.298099 -2.46807,1.150317 -1.00975,1.503388 -0.91905,3.005435 -0.92914,4.752165 -0.005,0.303134 -0.01,0.606268 -0.0144,0.918588 -0.0143,0.965035 -0.0233,1.930034 -0.0321,2.895132 -0.009,0.655607 -0.0179,1.311208 -0.0274,1.966805 -0.0224,1.60435 -0.0405,3.208705 -0.0553,4.813143 -0.83977,0.419885 -1.74142,0.302457 -2.66237,0.297656 -0.19731,0.001 -0.39462,0.002 -0.5979,0.0031 -1.46873,-0.0027 -1.46873,-0.0027 -1.76682,-0.300757 -0.0251,-0.65205 -0.0332,-1.296655 -0.03,-1.948782 -4e-5,-0.203909 -8e-5,-0.407818 -1.2e-4,-0.617905 1.8e-4,-0.677168 0.002,-1.354317 0.004,-2.031482 5.1e-4,-0.468251 8.8e-4,-0.936503 0.001,-1.404755 0.001,-1.234889 0.004,-2.469769 0.007,-3.704655 0.003,-1.259127 0.004,-2.518256 0.005,-3.777386 0.003,-2.472376 0.007,-4.944746 0.0129,-7.417118 0.70006,-0.0071 1.40005,-0.01237 2.10013,-0.01654 0.19969,-0.0022 0.39938,-0.0044 0.60513,-0.0067 0.50941,-0.0023 1.01884,0.0094 1.52807,0.02325 0.26458,0.264584 0.26458,0.264584 0.28112,1.207162 -0.005,0.300136 -0.0109,0.600273 -0.0165,0.909505 0.19475,-0.146658 0.3895,-0.293316 0.59015,-0.444417 0.25818,-0.191679 0.51637,-0.383357 0.78238,-0.580844 0.25477,-0.190314 0.50955,-0.380627 0.77204,-0.576709 2.41379,-1.622216 6.35217,-1.636875 8.95657,-0.350366 z"
           fill="#3e2821"
           id="path12"
           style="stroke-width:0.264583" /></g><g
         id="g2"><path
           id="path6"
           d="m 65.710571,82.125944 c -0.465528,-0.003 -0.935276,5.3e-5 -1.408183,0.0036 -0.860586,0.01173 -1.721095,0.0234 -2.581754,0.02791 -0.569429,0.0021 -1.138486,0.0046 -1.707906,0.0083 l -0.810803,0.0067 -0.787549,0.0057 -0.72037,0.01033 c -0.81204,0.01007 -1.350092,-0.144858 -1.4149,0.79375 l -5.16e-4,0.642855 -0.0021,0.735356 0.0016,0.81287 c -0.0015,0.895884 -0.0027,1.791806 -0.0021,2.687691 6.14e-4,0.642254 6.94e-4,1.284243 5.16e-4,1.926498 -6.88e-4,1.33368 -9.52e-4,2.667626 0,4.001306 0.0016,1.741299 0.0025,3.482671 0.001,5.22397 -0.0012,1.35503 -0.0014,2.70983 -0.001,4.06487 3.34e-4,0.64557 3.39e-4,1.29125 5.16e-4,1.93683 -8.91e-4,0.93359 -0.0017,1.86727 -5.16e-4,2.80086 l 0.0016,0.85111 -0.0016,0.81287 0.0021,0.73536 c 1.76e-4,0.37513 0.0077,0.75075 0.03359,1.12499 0.298082,0.29809 0.298084,0.29809 1.873788,0.30076 l 0.639754,-0.003 0.639754,0.003 c 0.662607,-10e-4 1.37491,0.19812 1.873788,-0.30076 0.01641,-0.5208 0.03002,-1.04163 0.02997,-1.56269 l -0.0041,-0.66249 c -0.0012,-0.6968 -0.0025,-1.39352 -0.0057,-2.09031 -0.0023,-0.48585 -0.0044,-0.97195 -0.0057,-1.4578 -0.0025,-1.12078 -0.0056,-2.24129 -0.01034,-3.36207 l -0.0041,-0.9188 c 0.807703,0.011 1.615353,0.0196 2.423108,0.0258 l 0.999939,0.007 c 3.471986,0.048 6.665688,-0.0772 9.407179,-2.457729 2.093004,-2.161627 2.859839,-4.23582 2.862875,-7.19956 -0.02465,-2.626167 -0.534773,-4.871042 -2.463933,-6.779948 -2.543402,-2.422576 -5.59916,-2.734413 -8.857857,-2.755387 z m -0.0987,4.530472 c 3.183301,0.0019 3.529477,0.309406 4.914429,1.540475 1.270647,1.444078 1.221344,2.64813 1.206128,4.508252 -0.12147,1.481259 -0.726193,2.119657 -1.77767,3.09025 -2.594474,1.771836 -5.530825,1.256771 -8.615494,1.256771 v -10.31875 c 1.835106,-0.04449 3.211507,-0.07762 4.272607,-0.077 z"
           style="fill:#3e2721;fill-opacity:1;stroke:none;stroke-width:0.264583" /><path
           id="path9"
           d="m 120.41318,90.071711 c -1.2442,-0.01913 -2.4949,0.185449 -3.68298,0.625285 -3.18308,1.409128 -5.26388,3.460089 -6.55877,6.752043 -0.91643,3.007771 -0.73191,6.445911 0.56844,9.294521 1.3432,2.47067 3.69204,4.31869 6.33759,5.20795 3.55598,0.73285 7.0369,0.2283 10.14305,-1.67018 1.04496,-0.84277 1.87574,-1.55111 2.11667,-2.91042 l -0.41651,-0.39584 -0.55914,-0.51366 c -0.7943,-0.74045 -1.35974,-1.14168 -2.46393,-1.20716 l -0.59531,0.57877 c -0.77693,0.79458 -1.40396,1.19017 -2.41846,1.61231 -1.80873,0.49821 -3.89542,0.43974 -5.58519,-0.40515 -1.80524,-1.73468 -1.80524,-1.73469 -2.51354,-4.43177 h 15.61041 c 0,-3.464176 -0.22223,-6.76791 -2.73988,-9.387537 l -0.43512,-0.402043 c -0.31204,-0.289602 -0.63223,-0.570619 -0.95911,-0.843359 -1.71879,-1.218839 -3.77456,-1.871868 -5.84822,-1.90376 z m -0.17208,4.275708 c 1.0159,0.01635 1.98492,0.259365 3.00653,0.764811 0.86184,0.56955 1.43848,1.260872 1.85622,2.204517 l 0.26458,1.5875 H 114.7851 c 0.84952,-2.265393 1.54311,-3.162393 3.55534,-4.349089 0.66456,-0.14588 1.29111,-0.217549 1.90066,-0.207739 z"
           style="fill:#3e2721;fill-opacity:1;stroke:none;stroke-width:0.264583" /><path
           id="path10"
           d="m 172.55263,90.139925 c -1.60582,-0.03948 -3.23225,0.285302 -4.83433,1.008724 -2.77149,1.458112 -4.64876,3.922006 -5.6565,6.861596 -0.6577,3.250905 -0.34955,6.414495 1.14205,9.360665 1.71703,2.43708 3.96376,4.09446 6.87916,4.7625 3.03664,0.33674 6.07422,0.11459 8.69818,-1.55442 1.23486,-0.89406 2.36461,-1.65624 2.67891,-3.20808 l -0.41652,-0.39584 -0.55913,-0.51366 c -0.7943,-0.74045 -1.35974,-1.14167 -2.46394,-1.20716 l -0.59531,0.57877 c -0.77405,0.79164 -1.39023,1.19387 -2.40399,1.60921 -1.66501,0.45653 -3.6416,0.58191 -5.20278,-0.25322 -1.96062,-1.51131 -2.11515,-1.92972 -2.91042,-4.5806 h 15.34584 v -4.497912 c -0.58683,-2.347295 -1.7292,-4.625656 -3.70417,-6.085417 -1.9018,-1.181517 -3.93243,-1.834393 -5.99705,-1.885156 z m -0.0191,4.177523 c 0.77966,-0.01167 1.55824,0.146947 2.37815,0.502294 1.06219,0.600001 1.80365,1.386288 2.3151,2.497006 l 0.26459,1.5875 h -10.58334 c 0.82973,-1.936018 1.3754,-3.141597 3.24115,-4.067969 0.82396,-0.32521 1.60469,-0.507163 2.38435,-0.518831 z"
           style="fill:#3e2721;fill-opacity:1;stroke:none;stroke-width:0.264583" /><path
           id="path11"
           d="m 87.926269,90.035538 c -2.439716,-0.01726 -4.875325,0.716126 -6.868315,2.217952 -1.102964,0.928168 -1.828403,1.457005 -1.99161,2.94659 0.994145,0.911061 1.857343,1.717377 3.175,2.116667 1.042191,-0.977053 2.091283,-1.857272 3.393075,-2.463932 1.551181,-0.49014 3.35674,-0.378869 4.809009,0.347265 0.646266,0.592412 0.990317,1.069856 1.219563,1.91978 l 0.132292,0.642338 c 0.07988,0.380406 0.158848,0.761009 0.235645,1.142049 -0.64673,0.02087 -1.293335,0.04358 -1.939934,0.06821 l -0.805119,0.03101 c -3.622374,0.116071 -7.294164,0.490306 -10.035563,3.098513 -1.162044,1.31199 -1.701303,2.63481 -1.607137,4.39664 0.293307,1.77798 1.052418,3.14926 2.493905,4.23643 l 0.516764,0.34003 c 0.53689,0.35608 1.046369,0.63027 1.642277,0.87643 2.477619,0.60988 5.408874,0.44371 7.641911,-0.80408 l 0.753442,-0.5023 0.767912,-0.50643 0.571542,-0.38654 -0.01654,0.77722 c 0.01654,0.81028 0.01654,0.81028 0.28112,1.07487 0.509228,0.0138 1.018661,0.0255 1.528072,0.0233 l 0.605131,-0.007 c 0.700079,-0.004 1.40007,-0.009 2.10013,-0.0165 0.01676,-1.81521 0.03028,-3.6304 0.03876,-5.44567 0.004,-0.92768 0.0073,-1.85511 0.0155,-2.78277 0.0088,-0.90646 0.01663,-1.81323 0.01964,-2.71973 l 0.0036,-1.040764 c 0.01502,-1.212067 0.0284,-2.413253 -0.07751,-3.621485 -0.499541,-1.994156 -1.548479,-3.287391 -3.108854,-4.564062 -1.696093,-0.913281 -3.596165,-1.380803 -5.493721,-1.39423 z M 89.413,102.57637 c 0.784011,-0.007 1.574757,0.0187 2.353344,0.032 0.09514,1.3558 0.09175,2.33538 -0.667659,3.5264 -1.020948,1.156 -2.54998,2.19383 -4.108277,2.34818 -1.611692,0.0334 -2.703105,-0.19442 -3.938777,-1.31051 -0.436618,-0.92461 -0.305263,-1.47932 -0.01654,-2.4474 1.733063,-1.81367 4.02587,-2.12766 6.377906,-2.14871 z"
           style="fill:#3e2721;fill-opacity:1;stroke:none;stroke-width:0.264583" /><path
           d="m 137.20233,84.845157 c 0.29775,0.0015 0.29775,0.0015 0.60151,0.0031 0.1985,-0.001 0.397,-0.002 0.60152,-0.0031 1.48165,0.0027 1.48165,0.0027 1.77973,0.300757 0.023,0.413207 0.0283,0.82743 0.0258,1.241268 -8.4e-4,0.249829 -0.002,0.499659 -0.003,0.757059 -0.003,0.394186 -0.003,0.394186 -0.007,0.796334 -10e-4,0.263814 -0.002,0.527627 -0.004,0.799435 -0.003,0.654067 -0.007,1.308103 -0.0129,1.962154 0.34072,-0.0031 0.68144,-0.0061 1.03249,-0.0093 0.44407,-0.0025 0.88815,-0.0049 1.33222,-0.0072 0.3374,-0.0033 0.3374,-0.0033 0.68161,-0.0067 0.21402,-8.47e-4 0.42804,-0.0017 0.64854,-0.0026 0.19814,-0.0014 0.39627,-0.0028 0.60042,-0.0042 0.46722,0.03004 0.46722,0.03004 0.7318,0.29462 0.0332,0.567023 0.0465,1.135271 0.0496,1.703255 0.004,0.31071 0.008,0.62142 0.0114,0.941545 -0.061,0.794783 -0.061,0.794783 -0.59015,1.32395 -0.76976,0.03841 -1.5134,0.04929 -2.28203,0.03307 -0.21214,-0.0024 -0.42428,-0.0048 -0.64285,-0.0072 -0.52438,-0.0062 -1.04872,-0.01573 -1.57303,-0.02584 0.0182,1.563322 0.0415,3.126457 0.0694,4.689636 0.009,0.53173 0.0162,1.06349 0.0222,1.59526 0.009,0.76457 0.0227,1.52892 0.0375,2.2934 0.002,0.23761 0.003,0.47522 0.005,0.72003 0.0299,1.29522 0.0299,1.29522 0.4807,2.49224 0.71281,0.61143 1.41098,0.53485 2.32847,0.56217 1.80078,0.0645 1.80078,0.0645 2.0836,0.34727 0.0264,0.66446 0.0367,1.32001 0.0331,1.98437 0.002,0.27882 0.002,0.27882 0.003,0.56328 -0.003,1.3876 -0.003,1.3876 -0.30076,1.68568 -0.92916,0.082 -1.86233,0.0737 -2.79466,0.0827 -0.25869,0.008 -0.51739,0.0153 -0.78393,0.0233 -1.86863,0.0163 -3.33022,-0.25693 -4.76139,-1.51928 -1.59927,-1.73742 -1.52434,-3.76819 -1.50127,-5.98568 7.5e-4,-0.2734 0.001,-0.54679 0.002,-0.82848 0.003,-0.86799 0.01,-1.7359 0.0163,-2.60387 0.003,-0.59066 0.005,-1.181326 0.007,-1.771989 0.006,-1.443347 0.0147,-2.886652 0.0258,-4.329968 -0.30593,0.0092 -0.30593,0.0092 -0.61805,0.0186 -0.26535,0.0048 -0.53069,0.0095 -0.80408,0.01447 -0.26399,0.0061 -0.52797,0.01228 -0.79995,0.0186 -0.68834,-0.05168 -0.68834,-0.05168 -1.2175,-0.580843 -0.0517,-0.861963 -0.0517,-0.861963 -0.0331,-1.885156 0.005,-0.339018 0.01,-0.678037 0.0145,-1.027328 0.006,-0.261255 0.0123,-0.522511 0.0186,-0.791683 1.70259,-0.130968 1.70259,-0.130968 3.43958,-0.264583 0.016,-0.378923 0.0321,-0.757845 0.0486,-1.14825 0.0223,-0.493686 0.0447,-0.987367 0.0672,-1.481047 0.0104,-0.250171 0.0208,-0.500341 0.0315,-0.758093 0.0111,-0.237893 0.0222,-0.475785 0.0336,-0.720886 0.01,-0.220307 0.0194,-0.440613 0.0294,-0.667595 0.11636,-1.104834 0.89248,-0.814852 1.83406,-0.816552 z"
           fill="#3e2721"
           id="path19"
           style="stroke-width:0.264583" /><path
           d="m 152.019,84.845157 c 0.29775,0.0015 0.29775,0.0015 0.60151,0.0031 0.1985,-0.001 0.397,-0.002 0.60152,-0.0031 1.48165,0.0027 1.48165,0.0027 1.77973,0.300757 0.023,0.413207 0.0283,0.82743 0.0258,1.241268 -8.4e-4,0.249829 -0.002,0.499659 -0.003,0.757059 -0.003,0.394186 -0.003,0.394186 -0.007,0.796334 -0.001,0.263814 -0.002,0.527627 -0.004,0.799435 -0.003,0.654058 -0.008,1.308108 -0.0129,1.962154 1.65893,0 3.31787,0 5.02708,0 0.005,0.649387 0.0109,1.298773 0.0165,1.967838 0.002,0.204788 0.005,0.409576 0.007,0.62057 0.002,0.460178 -0.0106,0.920351 -0.0238,1.380342 -0.26458,0.264583 -0.26458,0.264583 -0.7318,0.29462 -0.19814,-0.0014 -0.39628,-0.0028 -0.60042,-0.0042 -0.21402,-8.47e-4 -0.42804,-0.0017 -0.64854,-0.0026 -0.22493,-0.0022 -0.44986,-0.0044 -0.68161,-0.0067 -0.22596,-0.0012 -0.45191,-0.0024 -0.68471,-0.0036 -0.56001,-0.0031 -1.12001,-0.0079 -1.68,-0.01292 0.0248,1.525607 0.0528,3.051103 0.084,4.576594 0.0101,0.518902 0.0193,1.037822 0.0276,1.556752 0.0121,0.74615 0.0274,1.49217 0.0434,2.23824 0.003,0.23182 0.006,0.46364 0.009,0.70249 0.005,0.21711 0.0105,0.43421 0.0159,0.65789 0.004,0.19036 0.007,0.38073 0.0107,0.57686 0.086,0.62949 0.27108,1.05736 0.60285,1.59743 0.97412,0.48706 2.13472,0.38885 3.2091,0.45475 0.75965,0.0744 0.75965,0.0744 1.02423,0.339 0.0264,0.66446 0.0367,1.32001 0.0331,1.98437 0.002,0.27882 0.002,0.27882 0.003,0.56328 -0.003,1.3876 -0.003,1.3876 -0.30075,1.68568 -0.88498,0.0818 -1.77409,0.0737 -2.66237,0.0827 -0.24608,0.008 -0.49216,0.0153 -0.74569,0.0233 -1.81965,0.0166 -3.29945,-0.26896 -4.66787,-1.53802 -1.05041,-1.18491 -1.51727,-2.30609 -1.50915,-3.87696 4e-5,-0.25946 8e-5,-0.51892 1.2e-4,-0.78624 0.003,-0.27676 0.005,-0.55352 0.008,-0.83866 7.5e-4,-0.28589 0.001,-0.57178 0.002,-0.86634 0.003,-0.91117 0.01,-1.82228 0.0163,-2.73344 0.003,-0.61857 0.005,-1.23713 0.007,-1.855705 0.006,-1.51466 0.0147,-3.029279 0.0258,-4.543909 -0.22306,0.0092 -0.44611,0.01842 -0.67593,0.02791 -0.28991,0.0072 -0.57981,0.01432 -0.8785,0.0217 -0.43281,0.01381 -0.43281,0.01381 -0.87436,0.0279 -0.24625,-0.02558 -0.4925,-0.05116 -0.74621,-0.07751 -0.61746,-0.926182 -0.59326,-1.321896 -0.57878,-2.414323 0.002,-0.284448 0.003,-0.568895 0.005,-0.861963 0.0444,-0.692464 0.0444,-0.692464 0.30902,-0.957047 0.57849,-0.01921 1.15756,-0.02216 1.73633,-0.01654 0.47528,0.0036 0.47528,0.0036 0.96015,0.0072 0.24523,0.0031 0.49045,0.0061 0.74311,0.0093 -0.001,-0.16693 -0.003,-0.33386 -0.004,-0.505848 -0.005,-0.751911 -0.009,-1.503818 -0.0123,-2.255741 -0.002,-0.26279 -0.004,-0.52558 -0.007,-0.796334 -8.5e-4,-0.249829 -0.002,-0.499659 -0.003,-0.757059 -0.001,-0.231391 -0.003,-0.462782 -0.004,-0.701185 0.0632,-1.136456 0.85415,-0.839108 1.80978,-0.840833 z"
           fill="#3d2721"
           id="path20"
           style="stroke-width:0.264583" /><path
           d="m 103.16513,82.199324 c 0.21112,10e-4 0.42224,0.002 0.63975,0.0031 0.21112,-10e-4 0.42224,-0.002 0.63976,-0.0031 1.5757,0.0027 1.5757,0.0027 1.87379,0.300757 0.0258,0.374242 0.0334,0.749765 0.0336,1.124899 7.4e-4,0.242642 0.001,0.485284 0.002,0.735279 -5.3e-4,0.268304 -10e-4,0.536609 -0.002,0.813044 4.7e-4,0.280902 9.2e-4,0.561805 0.001,0.851219 10e-4,0.933589 4e-4,1.867165 -5e-4,2.800754 1.8e-4,0.645579 4.2e-4,1.291157 7.7e-4,1.936736 3.9e-4,1.355033 -1.8e-4,2.710062 -0.001,4.065094 -0.002,1.741301 -6.3e-4,3.482591 9.6e-4,5.223894 9.5e-4,1.33368 6.6e-4,2.66736 -4e-5,4.00104 -1.8e-4,0.64225 4e-5,1.28451 6.6e-4,1.92676 6.6e-4,0.89589 -3.4e-4,1.79176 -0.002,2.68764 5.3e-4,0.26831 0.001,0.53661 0.002,0.81304 -0.001,0.36397 -0.001,0.36397 -0.002,0.73528 -10e-5,0.21209 -2e-4,0.42418 -2.9e-4,0.64269 -0.0333,0.48221 -0.0333,0.48221 -0.29788,0.7468 -0.7523,0.0264 -1.49674,0.0367 -2.24896,0.0331 -0.21111,0.001 -0.42223,0.002 -0.63975,0.003 -1.57571,-0.003 -1.57571,-0.003 -1.87379,-0.30076 -0.0258,-0.37424 -0.0334,-0.74977 -0.0336,-1.1249 -7.5e-4,-0.24264 -0.001,-0.48528 -0.002,-0.73528 5.3e-4,-0.2683 10e-4,-0.53661 0.002,-0.81304 -4.7e-4,-0.28091 -9.3e-4,-0.56181 -0.001,-0.85122 -10e-4,-0.93359 -3.9e-4,-1.86717 5e-4,-2.80076 -1.8e-4,-0.64558 -4.3e-4,-1.29115 -7.6e-4,-1.93673 -4e-4,-1.35504 1.7e-4,-2.71006 0.001,-4.065097 0.002,-1.741301 6.4e-4,-3.482591 -9.5e-4,-5.223891 -9.5e-4,-1.333682 -6.5e-4,-2.667361 4e-5,-4.001042 1.7e-4,-0.642255 -4e-5,-1.28451 -6.6e-4,-1.926764 -6.7e-4,-0.895886 3.5e-4,-1.791754 0.002,-2.687639 -5.4e-4,-0.268304 -10e-4,-0.536609 -0.002,-0.813044 7.4e-4,-0.242642 0.001,-0.485284 0.002,-0.735278 1e-4,-0.212086 2e-4,-0.424171 3.1e-4,-0.642684 0.0768,-1.112741 1.0004,-0.781428 1.90705,-0.782967 z"
           fill="#3d2720"
           id="path21"
           style="stroke-width:0.264583" /></g></g></g></svg>
