<?xml version="1.0" encoding="UTF-8" standalone="no"?>
<svg
   version="1.1"
   width="1024"
   height="1024"
   id="svg49"
   sodipodi:docname="open-palette.svg"
   inkscape:version="1.3.2 (091e20e, 2023-11-25, custom)"
   xmlns:inkscape="http://www.inkscape.org/namespaces/inkscape"
   xmlns:sodipodi="http://sodipodi.sourceforge.net/DTD/sodipodi-0.dtd"
   xmlns="http://www.w3.org/2000/svg"
   xmlns:svg="http://www.w3.org/2000/svg">
  <defs
     id="defs49">
    <inkscape:path-effect
       effect="fillet_chamfer"
       id="path-effect52"
       is_visible="true"
       lpeversion="1"
       nodesatellites_param="F,0,0,1,0,60,0,1 @ F,0,0,1,0,60,0,1 @ F,0,0,1,0,60,0,1 @ F,0,0,1,0,60,0,1"
       radius="60"
       unit="px"
       method="auto"
       mode="F"
       chamfer_steps="1"
       flexible="false"
       use_knot_distance="true"
       apply_no_radius="true"
       apply_with_radius="true"
       only_selected="false"
       hide_knots="false" />
  </defs>
  <sodipodi:namedview
     id="namedview49"
     pagecolor="#ffffff"
     bordercolor="#666666"
     borderopacity="1.0"
     inkscape:showpageshadow="2"
     inkscape:pageopacity="0.0"
     inkscape:pagecheckerboard="0"
     inkscape:deskcolor="#d1d1d1"
     inkscape:zoom="0.56692839"
     inkscape:cx="139.34741"
     inkscape:cy="604.13274"
     inkscape:window-width="1920"
     inkscape:window-height="1017"
     inkscape:window-x="-8"
     inkscape:window-y="472"
     inkscape:window-maximized="1"
     inkscape:current-layer="svg49" />
  <path
     id="path4"
     d="M -36.378906 -10.349609 C -48.994829 -10.202244 -61.364831 -6.0639485 -71.285156 3.25 L -73 5 C -78.287429 10.296625 -82.870017 15.455403 -85.9375 22.335938 L -87 25 C -89.764625 31.638737 -91.212871 37.910921 -91.423828 45.082031 C -91.520528 62.325196 -86.683488 76.738146 -74.710938 89.425781 C -63.450557 100.06059 -49.814595 106.0805 -34.1875 106.375 C -17.658396 105.75088 -2.1587473 99.915779 9.25 87.6875 C 22.44069 71.917179 24.379868 55.991912 23 36 C 20.423254 21.252381 11.911559 8.8507408 0 0 C -10.90107 -6.6534115 -23.762984 -10.496974 -36.378906 -10.349609 z M -35.521484 8.3183594 C -27.739724 8.2627355 -19.935133 10.662504 -13.375 14.625 C -4.8715747 20.679795 0.1073514 28.75282 2 39 C 3.2902286 51.814765 2.4507907 63.065603 -5.1875 73.8125 C -8.8758792 78.218064 -12.979022 81.251675 -18 84 L -19.789062 85.03125 C -27.364925 88.635625 -37.492348 88.191854 -45.457031 86.085938 C -56.947859 81.605237 -63.013321 74.842633 -68.039062 63.695312 C -71.767732 53.34564 -71.524442 40.035416 -67 30 C -62.215719 20.286459 -56.085783 14.055109 -46 10 C -42.591784 8.8763305 -39.058648 8.343643 -35.521484 8.3183594 z "
     transform="translate(555,376)"
     style="stroke:none;fill:#3e2721;fill-opacity:1" />
  <path
     style="fill:#fef7ef;fill-opacity:1;stroke:none;stroke-width:15;stroke-linecap:round;stroke-linejoin:bevel;stroke-dasharray:none;stroke-opacity:1;paint-order:normal"
     id="rect52"
     width="515.05621"
     height="467.79648"
     x="-65.506912"
     y="248.47676"
     inkscape:path-effect="#path-effect52"
     sodipodi:type="rect"
     d="M -5.5069122,248.47676 H 389.5493 a 60,60 45 0 1 60,60 l 0,347.79648 a 60,60 135 0 1 -60,60 l -395.0562122,0 a 60,60 45 0 1 -59.9999998,-60 V 308.47676 a 60,60 135 0 1 59.9999998,-60 z" />
  <ellipse
     style="display:none;fill:#fef7ef;fill-opacity:1;stroke:none;stroke-width:15;stroke-linecap:round;stroke-linejoin:round;paint-order:stroke fill markers"
     id="path49"
     cx="192.02119"
     cy="482.375"
     rx="257.52811"
     ry="233.89824"
     inkscape:export-filename="..\Documents\development\openpalette\assets\openpalette-logo-1544x1544.png"
     inkscape:export-xdpi="287.78"
     inkscape:export-ydpi="287.78" />
  <path
     id="path5"
     d="M 0 0 C -7.1821676 -0.021775928 -13.364969 1.1229793 -19.28125 5.3867188 L -21.25 7.25 L -23.28125 9.1367188 L -24.75 10.5625 C -25.047584 8.2243408 -25.382393 5.8906773 -25.75 3.5625 C -26.876607 2.4358935 -26.876614 2.4358923 -32.832031 2.4257812 L -35.25 2.4375 C -38.093026 2.4237212 -40.906652 2.4626303 -43.75 2.5625 C -44.749999 3.562499 -44.749159 3.5622348 -44.875 5.4160156 L -44.876953 7.890625 L -44.884766 10.720703 L -44.878906 13.849609 C -44.884495 17.297892 -44.889244 20.747025 -44.886719 24.195312 C -44.884399 26.667385 -44.884096 29.139254 -44.884766 31.611328 C -44.888034 38.07689 -44.886639 44.542252 -44.880859 51.007812 C -44.876622 55.708558 -44.875151 60.408629 -44.878906 65.109375 C -44.884211 70.994282 -44.886433 76.878762 -44.884766 82.763672 C -44.883509 85.248492 -44.883485 87.73393 -44.882812 90.21875 C -44.886184 93.812203 -44.889187 97.406548 -44.884766 101 L -44.878906 104.27539 L -44.884766 107.4043 L -44.876953 110.23438 C -44.876287 111.6775 -44.847739 113.12269 -44.75 114.5625 C -43.623393 115.68911 -43.623386 115.68911 -37.667969 115.69922 L -35.25 115.6875 C -32.406974 115.70128 -29.593348 115.66237 -26.75 115.5625 C -25.636129 114.44863 -25.636265 114.44949 -25.484375 108.50391 L -25.433594 105.93359 C -25.368598 103.2306 -25.305591 100.52739 -25.248047 97.824219 C -25.208132 95.939417 -25.166462 94.054646 -25.123047 92.169922 C -25.020823 87.822177 -24.920072 83.474886 -24.826172 79.126953 L -24.75 75.5625 L -23.3125 76.824219 L -21.416016 78.470703 C -20.211493 79.521804 -18.990961 80.554679 -17.75 81.5625 C -9.310179 86.184013 -0.44403075 86.642402 8.875 84.875 C 19.999998 80.548612 28.455783 75.01431 33.441406 63.691406 L 34.25 61.5625 C 35.649048 57.922552 36.626086 54.416089 37.25 50.5625 C 38.252887 35.658484 36.057452 22.423748 26.25 10.5625 C 19.150426 4.4001636 11.885685 0.28941236 2.3691406 0.00390625 L 0 0 z M -4.0996094 16.886719 C -1.3020185 16.830991 1.6261859 17.331053 4.703125 18.472656 C 11.723256 22.639184 15.691464 28.14156 17.746094 35.984375 C 19.475395 44.831963 17.905941 52.781316 13 60.375 C 9.8723093 64.447612 6.0850503 66.465061 1.3125 68.3125 C -6.0455649 69.204387 -11.382713 68.507053 -17.75 64.5625 C -23.109503 59.828051 -26.290451 53.21073 -26.988281 46.152344 C -27.210532 38.209821 -26.254154 30.562118 -20.84375 24.386719 C -15.775053 19.819218 -10.254309 17.009321 -4.0996094 16.886719 z "
     transform="translate(637.75,396.4375)"
     style="stroke:none;stroke-opacity:1;fill:#3e2721;fill-opacity:1" />
  <path
     id="path6"
     d="M 30.299805 -0.23706055 C 28.540328 -0.2483855 26.764901 -0.23686038 24.977539 -0.22338867 C 21.72493 -0.17904618 18.47261 -0.13496455 15.219727 -0.11791992 C 13.067555 -0.11007463 10.916789 -0.10054102 8.7646484 -0.086669922 L 5.7001953 -0.061279297 L 2.7236328 -0.039794922 L 0.0009765625 -0.00073242188 C -3.0681522 0.03734247 -5.1017364 -0.54822732 -5.3466797 2.9992676 L -5.3486328 5.4289551 L -5.3564453 8.208252 L -5.3505859 11.280518 C -5.3561746 14.666535 -5.3609236 18.052698 -5.3583984 21.438721 C -5.3560788 23.866136 -5.3557758 26.292554 -5.3564453 28.719971 C -5.3590405 33.760652 -5.3600501 38.802337 -5.3564453 43.843018 C -5.3504544 50.424305 -5.3468418 57.00587 -5.3525391 63.587158 C -5.357201 68.708536 -5.3579226 73.82906 -5.3564453 78.950439 C -5.3551891 81.390419 -5.3551652 83.830772 -5.3544922 86.270752 C -5.357864 89.799274 -5.3608662 93.328168 -5.3564453 96.856689 L -5.3505859 100.07349 L -5.3564453 103.14575 L -5.3486328 105.92505 C -5.3479659 107.34287 -5.3193435 108.76254 -5.2216797 110.177 C -4.0950731 111.30361 -4.0950661 111.30361 1.8603516 111.31372 L 4.2783203 111.302 L 6.6962891 111.31372 C 9.2006295 111.30947 11.892797 112.06253 13.77832 110.177 C 13.840362 108.20862 13.891797 106.24011 13.891602 104.27075 L 13.875977 101.76685 C 13.871551 99.133271 13.866569 96.500007 13.854492 93.866455 C 13.845858 92.030201 13.838048 90.192956 13.833008 88.356689 C 13.823507 84.120672 13.811993 79.885649 13.793945 75.649658 L 13.77832 72.177002 C 16.831054 72.218484 19.883588 72.251264 22.936523 72.274658 L 26.71582 72.302002 C 39.838281 72.483386 51.908965 72.010267 62.270508 63.012939 C 70.181074 54.84301 73.079346 47.003541 73.09082 35.802002 C 72.997671 25.876331 71.069631 17.391763 63.77832 10.177002 C 54.165459 1.0208088 42.61614 -0.15778589 30.299805 -0.23706055 z M 29.926758 16.885986 C 41.958131 16.893051 43.266512 18.055394 48.500977 22.708252 C 53.303422 28.166184 53.117079 32.716933 53.05957 39.747314 C 52.600471 45.345775 50.314904 47.758617 46.34082 51.427002 C 36.534933 58.123705 25.436914 56.177002 13.77832 56.177002 L 13.77832 17.177002 C 20.714154 17.008861 25.9163 16.883631 29.926758 16.885986 z "
     transform="translate(472.2216796875,516.822998046875)"
     style="stroke:none;fill:#3e2721;fill-opacity:1" />
  <path
     id="path7"
     d="M -16.755859 -3.4238281 C -24.147686 -3.42226 -31.557912 -1.6127586 -38.015625 1.6914062 C -48.537747 7.8064366 -54.313715 16.60619 -57.585938 28.195312 C -60.219422 40.225193 -59.419353 52.704075 -52.710938 63.257812 C -45.347514 73.169393 -36.966446 78.989706 -24.710938 81.257812 C -12.221466 82.399707 -0.497682 81.125549 9.7617188 73.394531 C 13.930402 69.886495 16.672218 67.887741 17.289062 62.257812 L 15.679688 60.761719 L 13.539062 58.820312 C 11.482238 56.93489 9.7882998 55.472985 7.2226562 54.367188 C 5.2890644 54.257813 5.2890609 54.257814 3.6835938 55.332031 C 1.9613735 57.088271 0.18227079 58.687012 -1.7109375 60.257812 C -9.1378559 64.904901 -16.417462 65.191955 -24.898438 63.695312 C -29.684032 61.249342 -34.568737 58.264901 -36.546875 53.060547 L -37.326172 50.611328 C -37.792535 49.161526 -38.255051 47.710943 -38.710938 46.257812 C -31.736262 46.160258 -24.761636 46.05883 -17.787109 45.951172 C -14.234685 45.895918 -10.681407 45.839232 -7.1289062 45.789062 C -3.6452531 45.74088 -0.16323617 45.692002 3.3203125 45.636719 L 7.2851562 45.574219 L 11.179688 45.523438 L 14.759766 45.462891 C 16.604011 45.435481 18.448744 45.381184 20.289062 45.257812 C 21.415746 44.131129 21.415747 44.131122 21.425781 38.677734 L 21.414062 36.445312 C 21.432764 32.938812 21.507223 29.475696 20.886719 26.011719 C 16.93552 14.416371 10.817342 5.9440001 0 0 C -5.2682041 -2.3323628 -11.006661 -3.4250478 -16.755859 -3.4238281 z M -17.710938 12.441406 C -13.735751 12.441406 -9.7605539 13.254936 -6.6484375 14.882812 C -0.67365231 19.71349 1.1276909 22.128211 2.2890625 30.257812 L -38.710938 30.257812 C -36.561859 22.736038 -34.711246 19.683594 -28.773438 14.882812 C -25.661321 13.254936 -21.686124 12.441406 -17.710938 12.441406 z "
     transform="translate(743.7109375,399.7421875)"
     style="stroke:none;fill:#3e2721;fill-opacity:1" />
  <path
     id="path9"
     d="M -22.103516 -7.1953125 C -26.805999 -7.2676334 -31.533046 -6.4944034 -36.023438 -4.8320312 C -48.05397 0.49380623 -55.918406 8.2454711 -60.8125 20.6875 C -64.276177 32.055464 -63.578769 45.050016 -58.664062 55.816406 C -53.587404 65.154381 -44.709882 72.13901 -34.710938 75.5 C -21.271023 78.269818 -8.1148082 76.362871 3.625 69.1875 C 7.5744491 66.00223 10.714406 63.325047 11.625 58.1875 L 10.050781 56.691406 L 7.9375 54.75 C 4.9354224 51.951453 2.7983425 50.435013 -1.375 50.1875 L -3.625 52.375 C -6.561397 55.378133 -8.9313003 56.873259 -12.765625 58.46875 C -19.601759 60.351757 -27.488476 60.130762 -33.875 56.9375 C -40.697947 50.381201 -40.697956 50.381184 -43.375 40.1875 L 15.625 40.1875 C 15.625 27.094539 14.785047 14.607985 5.2695312 4.7070312 L 3.625 3.1875 C 2.4456317 2.0929403 1.2354602 1.0308291 0 0 C -6.4962217 -4.6066363 -14.266044 -7.0747776 -22.103516 -7.1953125 z M -22.753906 8.9648438 C -18.914264 9.0266381 -15.251825 9.9451199 -11.390625 11.855469 C -8.1332765 14.008096 -5.953861 16.620966 -4.375 20.1875 L -3.375 26.1875 L -43.375 26.1875 C -40.164206 17.625383 -37.54275 14.235147 -29.9375 9.75 C -27.42575 9.1986403 -25.057692 8.9277671 -22.753906 8.9648438 z "
     transform="translate(731.375,553.8125)"
     style="fill:#3e2721;fill-opacity:1;stroke:none" />
  <path
     id="path10"
     d="M -22.666016 -7.125 C -28.73524 -7.2742248 -34.882382 -6.046691 -40.9375 -3.3125 C -51.412405 2.1984753 -58.507625 11.510832 -62.316406 22.621094 C -64.802195 34.90799 -63.637544 46.864851 -58 58 C -51.51043 67.211003 -43.018838 73.475119 -32 76 C -20.522931 77.272721 -9.0423289 76.433072 0.875 70.125 C 5.5421815 66.745894 9.8121116 63.865199 11 58 L 9.4257812 56.503906 L 7.3125 54.5625 C 4.3104224 51.763953 2.1733425 50.247513 -2 50 L -4.25 52.1875 C -7.1755358 55.179525 -9.5044147 56.69976 -13.335938 58.269531 C -19.628883 59.995016 -27.09949 60.468886 -33 57.3125 C -40.410208 51.600464 -40.994286 50.019048 -44 40 L 14 40 L 14 23 C 11.782084 14.128336 7.4644584 5.5172084 0 0 C -7.1879067 -4.4655766 -14.862728 -6.9331395 -22.666016 -7.125 z M -22.738281 8.6640625 C -19.79155 8.6199615 -16.848888 9.2194546 -13.75 10.5625 C -9.7354155 12.830219 -6.9330651 15.802013 -5 20 L -4 26 L -44 26 C -40.864043 18.682767 -38.801636 14.126248 -31.75 10.625 C -28.635831 9.3958587 -25.685012 8.7081635 -22.738281 8.6640625 z "
     transform="translate(929,554)"
     style="stroke:none;fill:#3e2721;fill-opacity:1" />
  <path
     id="path11"
     d="M -20.763672 -5.2695312 C -29.984643 -5.3347811 -39.190094 -2.5629146 -46.722656 3.1132812 C -50.891339 6.6213172 -53.633156 8.6200716 -54.25 14.25 C -50.492603 17.693378 -47.230123 20.740872 -42.25 22.25 C -38.311013 18.5572 -34.345939 15.230389 -29.425781 12.9375 C -23.563049 11.085003 -16.738889 11.505556 -11.25 14.25 C -8.8074171 16.489034 -7.5070688 18.29355 -6.640625 21.505859 L -6.140625 23.933594 C -5.8387238 25.371348 -5.5402542 26.809849 -5.25 28.25 C -7.6943316 28.328891 -10.138192 28.414714 -12.582031 28.507812 L -15.625 28.625 C -29.315866 29.063693 -43.193497 30.478125 -53.554688 40.335938 C -57.946665 45.294622 -59.984812 50.294248 -59.628906 56.953125 C -58.520346 63.673056 -55.651264 68.855848 -50.203125 72.964844 L -48.25 74.25 C -46.220811 75.595805 -44.29522 76.632138 -42.042969 77.5625 C -32.678739 79.867541 -21.59998 79.239496 -13.160156 74.523438 L -10.3125 72.625 L -7.4101562 70.710938 L -5.25 69.25 L -5.3125 72.1875 C -5.2500001 75.249997 -5.249999 75.250001 -4.25 76.25 C -2.3253577 76.302243 -0.3999412 76.346524 1.5253906 76.337891 L 3.8125 76.3125 C 6.4584664 76.296764 9.1041025 76.276847 11.75 76.25 C 11.813356 69.38939 11.864457 62.528798 11.896484 55.667969 C 11.911565 52.161764 11.924209 48.656498 11.955078 45.150391 C 11.98842 41.724401 12.017926 38.297236 12.029297 34.871094 L 12.042969 30.9375 C 12.099748 26.356459 12.150309 21.816545 11.75 17.25 C 9.861969 9.7130291 5.8974806 4.8252114 0 0 C -6.4104296 -3.4517698 -13.591806 -5.2187814 -20.763672 -5.2695312 z M -15.144531 42.128906 C -12.181337 42.102391 -9.1926935 42.19965 -6.25 42.25 C -5.8904016 47.374278 -5.9032228 51.076637 -8.7734375 55.578125 C -12.632139 59.947236 -18.411157 63.869772 -24.300781 64.453125 C -30.392218 64.579372 -34.517243 63.718296 -39.1875 59.5 C -40.837709 56.00544 -40.34125 53.908896 -39.25 50.25 C -32.699841 43.395183 -24.034113 42.208452 -15.144531 42.128906 z "
     transform="translate(607.25,551.75)"
     style="stroke:none;fill:#3e2721;fill-opacity:1" />
  <path
     d="M0 0 C7.41917678 5.00758968 10.85137541 11.87048405 13.04296875 20.37890625 C13.54627203 24.96676794 13.53554028 29.49423113 13.46875 34.10546875 C13.46381783 36.00962051 13.46381783 36.00962051 13.45878601 37.95223999 C13.44842385 40.61342015 13.43085934 43.27320186 13.3996582 45.93408203 C13.35968218 49.34941178 13.3419772 52.76438851 13.33234882 56.17992592 C13.32241316 59.44682144 13.30218007 62.71362752 13.28125 65.98046875 C13.27386307 67.20947906 13.26647614 68.43848938 13.25886536 69.70474243 C13.24603012 70.83036591 13.23319489 71.95598938 13.2199707 73.11572266 C13.2101265 74.11068756 13.20028229 75.10565247 13.19013977 76.13076782 C13.04296875 78.37890625 13.04296875 78.37890625 12.04296875 79.37890625 C9.18029308 79.45215793 6.34224975 79.4712883 3.48046875 79.44140625 C2.67416016 79.43689453 1.86785156 79.43238281 1.03710938 79.42773438 C-0.96096881 79.41591143 -2.95900908 79.39797539 -4.95703125 79.37890625 C-6.16947662 76.95401551 -6.0879111 75.39830789 -6.09887695 72.68896484 C-6.10591141 71.71389984 -6.11294586 70.73883484 -6.12019348 69.73422241 C-6.12435776 68.67595245 -6.12852203 67.6176825 -6.1328125 66.52734375 C-6.15602093 64.29165736 -6.18013867 62.05598025 -6.20507812 59.8203125 C-6.24012341 56.29176719 -6.26949441 52.76356104 -6.28295898 49.23486328 C-6.29848983 45.83193617 -6.33874598 42.43000571 -6.3828125 39.02734375 C-6.38090408 37.98121918 -6.37899567 36.9350946 -6.37702942 35.85726929 C-6.48630383 29.27084183 -7.46383808 25.00287447 -10.95703125 19.37890625 C-15.68006596 15.35676033 -20.69156662 15.88840606 -26.62890625 16.03125 C-31.11901021 16.50028668 -32.82081272 17.15792506 -35.95703125 20.37890625 C-39.77340721 26.06100181 -39.43062414 31.73803041 -39.46875 38.33984375 C-39.4867012 39.4855484 -39.5046524 40.63125305 -39.52314758 41.81167603 C-39.57718562 45.45904904 -39.61112643 49.10629165 -39.64453125 52.75390625 C-39.67770995 55.23178895 -39.71220012 57.70965446 -39.74804688 60.1875 C-39.83290853 66.25118514 -39.90128611 72.31488729 -39.95703125 78.37890625 C-43.13096814 79.96587469 -46.5387733 79.52205095 -50.01953125 79.50390625 C-50.76525391 79.50777344 -51.51097656 79.51164062 -52.27929688 79.515625 C-57.83039624 79.50554126 -57.83039624 79.50554126 -58.95703125 78.37890625 C-59.05203673 75.91446568 -59.0826111 73.47815999 -59.07055664 71.01342773 C-59.07070267 70.24274963 -59.07084869 69.47207153 -59.07099915 68.67803955 C-59.07029985 66.11866486 -59.0625067 63.55936205 -59.0546875 61 C-59.05282338 59.2302301 -59.05139945 57.46045969 -59.05039978 55.69068909 C-59.04657413 51.02339259 -59.03674345 46.35612702 -59.0256958 41.68884277 C-59.01548269 36.9299359 -59.01090238 32.17102404 -59.00585938 27.41210938 C-58.99512122 18.06769472 -58.97804424 8.72330305 -58.95703125 -0.62109375 C-56.31113111 -0.64794054 -53.66550029 -0.66785732 -51.01953125 -0.68359375 C-50.26478516 -0.69197266 -49.51003906 -0.70035156 -48.73242188 -0.70898438 C-46.80708812 -0.71761816 -44.88167544 -0.67333708 -42.95703125 -0.62109375 C-41.95703125 0.37890625 -41.95703125 0.37890625 -41.89453125 3.94140625 C-41.91515625 5.07578125 -41.93578125 6.21015625 -41.95703125 7.37890625 C-41.22097656 6.82460938 -40.48492188 6.2703125 -39.7265625 5.69921875 C-38.75074219 4.97476562 -37.77492188 4.2503125 -36.76953125 3.50390625 C-35.80660156 2.78460938 -34.84367188 2.0653125 -33.8515625 1.32421875 C-24.72861703 -4.80699156 -9.84339137 -4.86239815 0 0 Z "
     fill="#3E2821"
     transform="translate(837.95703125,399.62109375)"
     id="path12" />
  <g
     id="g49"
     transform="translate(-63.132426,-18.236123)"
     style="display:inline"
     inkscape:export-filename="..\Documents\development\openpalette\assets\openpalette-logo-squircle.png"
     inkscape:export-xdpi="287.78217"
     inkscape:export-ydpi="287.78217">
    <path
       d="M 0,0 C 1.6076682,1.4753601 3.2121612,2.9541928 4.8125,4.4375 5.4054687,4.9647266 5.9984375,5.4919531 6.609375,6.0351562 23.671278,21.918975 37.984231,47.640176 39.148437,71.199219 39.458799,88.077464 36.492178,103.37625 24.5625,116.25 c -12.593927,11.45156 -26.9476113,16.14443 -43.65625,15.49609 -3.996765,-0.24753 -7.785229,-0.92422 -11.679687,-1.84765 -10.925269,-2.08606 -20.127602,0.0993 -29.726563,5.35156 -6.094418,4.96057 -11.09362,10.68586 -11.96875,18.79297 -0.290123,8.76413 1.387697,14.42914 7.03125,21.14453 5.905636,6.29645 11.856115,9.28911 20.5,9.6875 8.266496,-0.0505 15.258557,-3.27449 22.75,-6.4375 1.915266,-0.77431 3.831698,-1.54575 5.75,-2.3125 0.737344,-0.30551 1.474687,-0.61102 2.234375,-0.92578 9.0264952,-3.41118 19.2521445,-2.58133 28.015625,1.23828 10.487167,5.53681 16.986268,13.59473 20.582031,24.81641 3.909317,20.42344 -4.289139,42.0596 -15.550537,58.70166 -4.468184,6.34703 -9.5901668,11.95522 -15.031494,17.48193 -0.535686,0.5576 -1.0713721,1.1152 -1.623291,1.6897 -26.294183,27.00413 -66.607333,41.8486 -103.966549,42.47827 -44.93431,0.28671 -86.26283,-10.54172 -122.41016,-38.16797 -0.89461,-0.67031 -1.78922,-1.34063 -2.71094,-2.03125 -13.29638,-10.38156 -25.88791,-22.93766 -35.28906,-36.96875 -0.40235,-0.59619 -0.8047,-1.19238 -1.21924,-1.80664 -24.85449,-37.60609 -32.91965,-88.11383 -24.76513,-132.15039 0.40016,-1.95417 0.81182,-3.90602 1.23437,-5.85547 0.22325,-1.04116 0.4465,-2.08232 0.67651,-3.15503 7.68277,-34.924877 24.15325,-64.690032 48.07349,-91.03247 0.69738,-0.7708594 1.39477,-1.5417187 2.11328,-2.3359375 5.98764,-6.2825354 12.93397,-11.5053356 19.88672,-16.6640625 0.57073,-0.4257129 1.14146,-0.8514258 1.72949,-1.2900391 C -151.96476,-55.762279 -57.591619,-51.1158 0,0 Z"
       fill="#fdf6ed"
       transform="translate(381.1875,360.5625)"
       id="path2"
       style="display:inline" />
    <path
       d="M 0,0 C 1.6076682,1.4753601 3.2121612,2.9541928 4.8125,4.4375 5.4054687,4.9647266 5.9984375,5.4919531 6.609375,6.0351562 23.671278,21.918975 37.984231,47.640176 39.148437,71.199219 39.458799,88.077464 36.492178,103.37625 24.5625,116.25 c -12.593927,11.45156 -26.9476113,16.14443 -43.65625,15.49609 -3.996765,-0.24753 -7.785229,-0.92422 -11.679687,-1.84765 -10.925269,-2.08606 -20.127602,0.0993 -29.726563,5.35156 -6.094418,4.96057 -11.09362,10.68586 -11.96875,18.79297 -0.290123,8.76413 1.387697,14.42914 7.03125,21.14453 5.905636,6.29645 11.856115,9.28911 20.5,9.6875 8.266496,-0.0505 15.258557,-3.27449 22.75,-6.4375 1.915266,-0.77431 3.831698,-1.54575 5.75,-2.3125 0.737344,-0.30551 1.474687,-0.61102 2.234375,-0.92578 9.0264952,-3.41118 19.2521445,-2.58133 28.015625,1.23828 10.487167,5.53681 16.986268,13.59473 20.582031,24.81641 3.909317,20.42344 -4.289139,42.0596 -15.550537,58.70166 -4.468184,6.34703 -9.5901668,11.95522 -15.031494,17.48193 -0.535686,0.5576 -1.0713721,1.1152 -1.623291,1.6897 -26.294183,27.00413 -66.607333,41.8486 -103.966549,42.47827 -44.93431,0.28671 -86.26283,-10.54172 -122.41016,-38.16797 -0.89461,-0.67031 -1.78922,-1.34063 -2.71094,-2.03125 -13.29638,-10.38156 -25.88791,-22.93766 -35.28906,-36.96875 -0.40235,-0.59619 -0.8047,-1.19238 -1.21924,-1.80664 -24.85449,-37.60609 -32.91965,-88.11383 -24.76513,-132.15039 0.40016,-1.95417 0.81182,-3.90602 1.23437,-5.85547 0.22325,-1.04116 0.4465,-2.08232 0.67651,-3.15503 7.68277,-34.924877 24.15325,-64.690032 48.07349,-91.03247 0.69738,-0.7708594 1.39477,-1.5417187 2.11328,-2.3359375 5.98764,-6.2825354 12.93397,-11.5053356 19.88672,-16.6640625 0.57073,-0.4257129 1.14146,-0.8514258 1.72949,-1.2900391 C -151.96476,-55.762279 -57.591619,-51.1158 0,0 Z m -221.1875,18.4375 c -1.34385,1.26457 -1.34385,1.26457 -2.71484,2.554687 -32.20015,31.161437 -48.4727,76.177366 -49.63892,120.431393 -0.35849,43.48492 14.44751,83.57064 44.35376,115.01392 0.68191,0.75797 1.36383,1.51594 2.06641,2.29687 23.75426,25.47425 60.04239,39.9554 93.93359,44.70313 0.68288,0.0957 1.36576,0.19143 2.06934,0.29004 39.661515,4.99123 80.103422,-4.74544 111.93066,-28.97754 17.9780166,-14.96197 34.473583,-34.07469 37,-58.3125 0.6506,-7.2176 0.391726,-13.01746 -4,-19 -4.4382069,-5.01377 -9.5339734,-6.64281 -16.0703125,-7.31641 -5.3628237,0.4318 -9.5245275,2.44733 -14.3671875,4.69141 -14.061324,6.42345 -27.805779,9.57447 -42.9375,4.625 -12.37087,-5.07887 -20.92212,-12.78076 -27.003906,-24.70313 -4.245094,-10.59054 -4.68525,-24.23629 -0.558594,-34.92187 7.007071,-14.01414 18.155251,-22.44052 32.9375,-27.375 4.190283,-1.08892 8.318072,-1.19159 12.625,-1.1875 0.712932,-6.4e-4 1.425864,-0.001 2.1604,-0.002 4.005955,0.0398 7.722171,0.33827 11.6521,1.18945 10.5937,2.20835 23.0910321,2.90026 32.5625,-3 9.121344,-6.71764 13.773817,-13.857786 16,-25 C 23.307758,63.654943 15.425516,45.612485 3.0351563,29.1875 -21.191841,-0.78755502 -53.067236,-18.854728 -91.578125,-23.128906 -139.14442,-27.333519 -186.15037,-14.790197 -221.1875,18.4375 Z"
       fill="#3f2822"
       transform="translate(381.1875,360.5625)"
       id="path3"
       style="display:inline" />
    <path
       d="m 0,0 c 7.8480069,4.7764351 13.879754,11.258267 16.488281,20.199219 2.099718,10.43743 -0.005,18.194231 -5.125,27.375 -5.755521,7.235512 -13.0564916,11.906406 -22.1875,13.75 C -19.910543,62.209627 -27.040298,60.75829 -34.496094,55.40625 -41.699571,49.385592 -46.345607,42.693638 -47.824219,33.324219 -48.707502,23.064548 -46.422636,15.36086 -39.855469,7.4023437 -29.459569,-3.233461 -13.600676,-6.5146095 0,0 Z"
       fill="#bd8ed3"
       transform="translate(185.82422,493.67578)"
       id="path13" />
    <path
       d="M 0,0 C 8.4590367,4.966348 13.888121,11.421858 16.8125,20.808594 19.080084,30.800134 16.461488,39.035901 11.625,47.875 5.3938266,55.530442 -2.791472,60.717522 -12.753906,61.800781 -21.85804,62.085754 -29.389767,59.73058 -36.4375,53.875 -43.20076,47.390513 -46.580414,40.348448 -46.905518,31.028809 -47.027633,23.043766 -46.22121,17.31763 -41.5625,10.5625 -40.840625,9.49 -40.11875,8.4175 -39.375,7.3125 -28.923212,-2.9070259 -13.477447,-6.2389205 0,0 Z"
       fill="#ee8ba6"
       transform="translate(197.5625,413.4375)"
       id="path14" />
    <path
       d="m 0,0 c 9.3772298,5.1148526 14.217904,12.431054 17.535156,22.382812 1.035615,11.001289 -0.973319,19.786674 -8.0624997,28.375 -7.135552,7.262766 -14.3169951,10.079213 -24.3750003,10.3125 -8.894622,-0.108063 -15.917284,-2.65883 -22.710937,-8.550781 -1.85023,-1.947815 -3.361492,-3.903687 -4.851563,-6.136719 -0.431836,-0.63164 -0.863672,-1.263281 -1.308593,-1.914062 -4.359613,-7.814116 -4.204005,-18.66289 -1.84375,-27.125 C -41.556611,8.4517759 -34.514351,1.934393 -25.464844,-1.6171875 -17.341397,-4.325003 -7.8028558,-3.2866226 0,0 Z"
       fill="#84b3e3"
       transform="translate(231.46484,559.61719)"
       id="path15" />
    <path
       d="m 0,0 c 9.126331,5.4572993 13.986495,12.404798 17.3125,22.382812 0.958686,10.184072 -0.609044,19.250067 -7.1875,27.3125 -7.0739432,7.376896 -14.7226935,11.551589 -25,12.125 -7.65747,-0.147664 -15.012782,-3.110846 -21.1875,-7.625 C -43.589225,46.130965 -47.217566,37.463646 -47,26.476562 -46.187351,18.431337 -42.295085,11.151321 -36.6875,5.3828125 -26.130948,-3.1458199 -12.667962,-5.9589428 0,0 Z"
       fill="#fa9196"
       transform="translate(264.6875,365.61719)"
       id="path16" />
    <path
       d="m 0,0 c 7.1654155,4.2318567 12.544074,10.042909 15.652344,17.820312 2.056967,8.349584 1.762419,17.586297 -1.957031,25.402344 C 8.4972799,51.783258 1.9572773,57.120601 -7.6328125,60.105469 -17.939603,62.084529 -26.696797,59.820865 -35.4375,54.3125 -42.387124,48.936376 -46.080932,40.974647 -47.6875,32.5 c -0.998926,-8.227266 0.955113,-15.443889 5.75,-22.1875 C -31.470104,-2.6619014 -15.572041,-7.2158322 0,0 Z"
       fill="#fcb673"
       transform="translate(346.6875,389.5)"
       id="path17" />
    <path
       d="M 0,0 C 8.0813865,4.64435 13.850147,11.042755 16.941406,19.890625 19.181899,29.528971 17.50061,38.121555 12.875,46.6875 6.6004096,54.488342 -0.48585027,59.73309 -10.613281,60.941406 -20.816407,61.313083 -27.921049,58.961626 -35.75,52.4375 c -6.98695,-6.657377 -10.179096,-13.977511 -11,-23.5 0.17667,-9.381156 4.82084,-17.830669 11.3125,-24.375 C -25.320892,-3.4407737 -11.860634,-5.4405194 0,0 Z"
       fill="#6dc3b4"
       transform="translate(315.4375,581.4375)"
       id="path18" />
  </g>
  <path
     d="M0 0 C1.12535156 0.00580078 1.12535156 0.00580078 2.2734375 0.01171875 C3.02367187 0.00785156 3.77390625 0.00398437 4.546875 0 C10.14682697 0.01010822 10.14682697 0.01010822 11.2734375 1.13671875 C11.36029353 2.6984462 11.38045969 4.26401219 11.37109375 5.828125 C11.36787109 6.77236328 11.36464844 7.71660156 11.36132812 8.68945312 C11.34875977 10.17928711 11.34875977 10.17928711 11.3359375 11.69921875 C11.33142578 12.69630859 11.32691406 13.69339844 11.32226562 14.72070312 C11.31043757 17.19276724 11.29395599 19.66471393 11.2734375 22.13671875 C12.56121094 22.12511719 13.84898437 22.11351562 15.17578125 22.1015625 C16.85416522 22.09218605 18.53255076 22.0830857 20.2109375 22.07421875 C21.48614258 22.06165039 21.48614258 22.06165039 22.78710938 22.04882812 C23.59599609 22.04560547 24.40488281 22.04238281 25.23828125 22.0390625 C25.987146 22.03382568 26.73601074 22.02858887 27.50756836 22.02319336 C29.2734375 22.13671875 29.2734375 22.13671875 30.2734375 23.13671875 C30.39881491 25.27979771 30.44918114 27.42750761 30.4609375 29.57421875 C30.47511719 30.74855469 30.48929688 31.92289063 30.50390625 33.1328125 C30.2734375 36.13671875 30.2734375 36.13671875 28.2734375 38.13671875 C25.3640817 38.28189619 22.5534915 38.32302671 19.6484375 38.26171875 C18.84664062 38.25269531 18.04484375 38.24367188 17.21875 38.234375 C15.23685227 38.21078098 13.25510769 38.1749094 11.2734375 38.13671875 C11.34229279 44.04533923 11.43024947 49.95325059 11.53588867 55.86132812 C11.56913476 57.87101374 11.59716769 59.88079266 11.61987305 61.890625 C11.65342472 64.78035222 11.70574087 67.66922468 11.76171875 70.55859375 C11.76810867 71.45664734 11.7744986 72.35470093 11.78108215 73.27996826 C11.89403081 78.17531928 11.89403081 78.17531928 13.59790039 82.69946289 C16.29197387 85.01040717 18.93075369 84.72097149 22.3984375 84.82421875 C29.20450855 85.0677898 29.20450855 85.0677898 30.2734375 86.13671875 C30.37318782 88.64807979 30.41225933 91.1257529 30.3984375 93.63671875 C30.40423828 94.69052734 30.40423828 94.69052734 30.41015625 95.765625 C30.40005128 101.01010497 30.40005128 101.01010497 29.2734375 102.13671875 C25.76164162 102.44657052 22.23470295 102.41531466 18.7109375 102.44921875 C17.73318359 102.47822266 16.75542969 102.50722656 15.74804688 102.53710938 C8.68545313 102.5986055 3.16133151 101.56600225 -2.24780273 96.79492188 C-8.29228757 90.22828947 -8.00909244 82.55296091 -7.921875 74.171875 C-7.9190451 73.13856552 -7.91621521 72.10525604 -7.91329956 71.04063416 C-7.90215897 67.76004153 -7.87706554 64.47972802 -7.8515625 61.19921875 C-7.8415248 58.96680083 -7.83240033 56.73437861 -7.82421875 54.50195312 C-7.80223971 49.04678075 -7.76882334 43.5917697 -7.7265625 38.13671875 C-8.88285156 38.17152344 -8.88285156 38.17152344 -10.0625 38.20703125 C-11.06539062 38.22507812 -12.06828125 38.243125 -13.1015625 38.26171875 C-14.09929688 38.28492188 -15.09703125 38.308125 -16.125 38.33203125 C-18.7265625 38.13671875 -18.7265625 38.13671875 -20.7265625 36.13671875 C-20.921875 32.87890625 -20.921875 32.87890625 -20.8515625 29.01171875 C-20.83351563 27.73039063 -20.81546875 26.4490625 -20.796875 25.12890625 C-20.77367187 24.14148438 -20.75046875 23.1540625 -20.7265625 22.13671875 C-14.2915625 21.64171875 -14.2915625 21.64171875 -7.7265625 21.13671875 C-7.66597656 19.70457031 -7.60539063 18.27242187 -7.54296875 16.796875 C-7.45858146 14.93097834 -7.37393257 13.06509351 -7.2890625 11.19921875 C-7.24974609 10.25369141 -7.21042969 9.30816406 -7.16992188 8.33398438 C-7.12802734 7.43486328 -7.08613281 6.53574219 -7.04296875 5.609375 C-7.00631104 4.77672119 -6.96965332 3.94406738 -6.93188477 3.08618164 C-6.49208436 -1.0895689 -3.55872117 0.00642368 0 0 Z "
     fill="#3E2721"
     transform="translate(772.7265625,526.86328125)"
     id="path19" />
  <path
     d="M0 0 C1.12535156 0.00580078 1.12535156 0.00580078 2.2734375 0.01171875 C3.02367187 0.00785156 3.77390625 0.00398437 4.546875 0 C10.14682697 0.01010822 10.14682697 0.01010822 11.2734375 1.13671875 C11.36029353 2.6984462 11.38045969 4.26401219 11.37109375 5.828125 C11.36787109 6.77236328 11.36464844 7.71660156 11.36132812 8.68945312 C11.34875977 10.17928711 11.34875977 10.17928711 11.3359375 11.69921875 C11.33142578 12.69630859 11.32691406 13.69339844 11.32226562 14.72070312 C11.31043773 17.19273362 11.29250165 19.66473347 11.2734375 22.13671875 C17.5434375 22.13671875 23.8134375 22.13671875 30.2734375 22.13671875 C30.2940625 24.59109375 30.3146875 27.04546875 30.3359375 29.57421875 C30.3450415 30.34822021 30.35414551 31.12222168 30.36352539 31.91967773 C30.37068663 33.65893592 30.32368452 35.39817179 30.2734375 37.13671875 C29.2734375 38.13671875 29.2734375 38.13671875 27.50756836 38.25024414 C26.75870361 38.24500732 26.00983887 38.23977051 25.23828125 38.234375 C24.42939453 38.23115234 23.62050781 38.22792969 22.78710938 38.22460938 C21.93697266 38.21623047 21.08683594 38.20785156 20.2109375 38.19921875 C19.35693359 38.19470703 18.50292969 38.19019531 17.62304688 38.18554688 C15.50648087 38.17372248 13.38995065 38.15578644 11.2734375 38.13671875 C11.36702777 43.90279267 11.47313466 49.66844947 11.59082031 55.43408203 C11.62909077 57.39528095 11.66394704 59.35654959 11.6953125 61.31787109 C11.7410049 64.13794872 11.7989925 66.95754713 11.859375 69.77734375 C11.87092621 70.65352356 11.88247742 71.52970337 11.89437866 72.43243408 C11.91424835 73.25298279 11.93411804 74.07353149 11.95458984 74.91894531 C11.96791351 75.63842346 11.98123718 76.35790161 11.9949646 77.09918213 C12.32013264 79.47837878 13.01951096 81.09551708 14.2734375 83.13671875 C17.95518112 84.97759056 22.34167931 84.6064028 26.40234375 84.85546875 C29.2734375 85.13671875 29.2734375 85.13671875 30.2734375 86.13671875 C30.37318782 88.64807979 30.41225933 91.1257529 30.3984375 93.63671875 C30.40423828 94.69052734 30.40423828 94.69052734 30.41015625 95.765625 C30.40005128 101.01010497 30.40005128 101.01010497 29.2734375 102.13671875 C25.92865065 102.44598676 22.56824524 102.41530655 19.2109375 102.44921875 C18.28087891 102.47822266 17.35082031 102.50722656 16.39257812 102.53710938 C9.51518385 102.5999387 3.9222278 101.52057845 -1.24975586 96.72412109 C-5.21979985 92.24572219 -6.98429615 88.00818038 -6.95361328 82.07104492 C-6.95346222 81.09040573 -6.95331116 80.10976654 -6.95315552 79.09941101 C-6.94283295 78.05340225 -6.93251038 77.00739349 -6.921875 75.9296875 C-6.9190451 74.84915604 -6.91621521 73.76862457 -6.91329956 72.65534973 C-6.90212382 69.21152574 -6.87702368 65.76796386 -6.8515625 62.32421875 C-6.84152935 59.98633189 -6.83240408 57.64844094 -6.82421875 55.31054688 C-6.802193 49.5858484 -6.76874118 43.8613023 -6.7265625 38.13671875 C-7.56960938 38.17152344 -8.41265625 38.20632813 -9.28125 38.2421875 C-10.37695312 38.26925781 -11.47265625 38.29632812 -12.6015625 38.32421875 C-14.23738281 38.37642578 -14.23738281 38.37642578 -15.90625 38.4296875 C-16.83695313 38.33300781 -17.76765625 38.23632812 -18.7265625 38.13671875 C-21.06024844 34.63618984 -20.96878229 33.14057538 -20.9140625 29.01171875 C-20.90761719 27.93664062 -20.90117188 26.8615625 -20.89453125 25.75390625 C-20.7265625 23.13671875 -20.7265625 23.13671875 -19.7265625 22.13671875 C-17.54016797 22.06412929 -15.35155861 22.05298092 -13.1640625 22.07421875 C-11.36775391 22.08775391 -11.36775391 22.08775391 -9.53515625 22.1015625 C-8.60832031 22.11316406 -7.68148437 22.12476563 -6.7265625 22.13671875 C-6.73179932 21.50580322 -6.73703613 20.8748877 -6.74243164 20.22485352 C-6.76314076 17.38298528 -6.77620316 14.54113287 -6.7890625 11.69921875 C-6.79744141 10.70599609 -6.80582031 9.71277344 -6.81445312 8.68945312 C-6.81767578 7.74521484 -6.82089844 6.80097656 -6.82421875 5.828125 C-6.82945557 4.95357666 -6.83469238 4.07902832 -6.84008789 3.17797852 C-6.6012037 -1.11731338 -3.61184752 0.00651958 0 0 Z "
     fill="#3D2721"
     transform="translate(828.7265625,526.86328125)"
     id="path20" />
  <path
     d="M0 0 C0.79792969 0.00386719 1.59585938 0.00773438 2.41796875 0.01171875 C3.21589844 0.00785156 4.01382813 0.00398437 4.8359375 0 C10.79136108 0.01011108 10.79136108 0.01011108 11.91796875 1.13671875 C12.01563271 2.55117867 12.04428552 3.97047821 12.04495239 5.38830566 C12.04777222 6.30537796 12.05059204 7.22245026 12.05349731 8.16731262 C12.05147308 9.1813768 12.04944885 10.19544098 12.04736328 11.24023438 C12.0491156 12.3019133 12.05086792 13.36359222 12.05267334 14.45744324 C12.05709423 17.9859681 12.05415303 21.51444332 12.05078125 25.04296875 C12.05145422 27.48295094 12.05242419 29.92293307 12.05368042 32.36291504 C12.05515772 37.48430009 12.05300182 42.60566774 12.04833984 47.72705078 C12.04264255 54.3083459 12.04592138 60.88960024 12.05191231 67.47089386 C12.05551707 72.51157949 12.05437973 77.55225537 12.05178452 82.59294128 C12.05111501 85.02036036 12.05194448 87.44778031 12.05426407 89.87519836 C12.0567892 93.26122398 12.05295197 96.64718254 12.04736328 100.03320312 C12.04938751 101.0472673 12.05141174 102.06133148 12.05349731 103.10612488 C12.04926758 104.48173332 12.04926758 104.48173332 12.04495239 105.88513184 C12.04457537 106.68671471 12.04419834 107.48829758 12.04380989 108.31417084 C11.91796875 110.13671875 11.91796875 110.13671875 10.91796875 111.13671875 C8.07461827 111.2365885 5.26099712 111.27549756 2.41796875 111.26171875 C1.62003906 111.26558594 0.82210937 111.26945313 0 111.2734375 C-5.95542358 111.26332642 -5.95542358 111.26332642 -7.08203125 110.13671875 C-7.17969521 108.72225883 -7.20834802 107.30295929 -7.20901489 105.88513184 C-7.21183472 104.96805954 -7.21465454 104.05098724 -7.21755981 103.10612488 C-7.21553558 102.0920607 -7.21351135 101.07799652 -7.21142578 100.03320312 C-7.2131781 98.9715242 -7.21493042 97.90984528 -7.21673584 96.81599426 C-7.22115673 93.2874694 -7.21821553 89.75899418 -7.21484375 86.23046875 C-7.21551672 83.79048656 -7.21648669 81.35050443 -7.21774292 78.91052246 C-7.21922022 73.78913741 -7.21706432 68.66776976 -7.21240234 63.54638672 C-7.20670505 56.9650916 -7.20998388 50.38383726 -7.21597481 43.80254364 C-7.21957957 38.76185801 -7.21844223 33.72118213 -7.21584702 28.68049622 C-7.21517751 26.25307714 -7.21600698 23.82565719 -7.21832657 21.39823914 C-7.2208517 18.01221352 -7.21701447 14.62625496 -7.21142578 11.24023438 C-7.21345001 10.2261702 -7.21547424 9.21210602 -7.21755981 8.16731262 C-7.21473999 7.25024033 -7.21192017 6.33316803 -7.20901489 5.38830566 C-7.20863787 4.58672279 -7.20826084 3.78513992 -7.20787239 2.95926666 C-6.91748527 -1.24638851 -3.42669085 0.00581781 0 0 Z "
     fill="#3D2720"
     transform="translate(644.08203125,516.86328125)"
     id="path21" />
</svg>
